<?xml version="1.0"?>
<svg width="10" height="9" xmlns="http://www.w3.org/2000/svg" xmlns:svg="http://www.w3.org/2000/svg">
 <g class="layer">
  <title>Layer 1</title>
  <path d="m9.29,4.1c-0.03,-0.23 -0.13,-0.41 -0.29,-0.54c-0.16,-0.13 -0.36,-0.2 -0.59,-0.21c-0.27,-0.01 -0.68,-0.01 -1.22,0l-1.47,0c0.03,-0.08 0.05,-0.16 0.07,-0.24l0.03,-0.12c0.07,-0.28 0.12,-0.49 0.15,-0.64c0.04,-0.23 0.05,-0.45 0.02,-0.65c-0.06,-0.42 -0.17,-0.75 -0.33,-1c-0.27,-0.41 -0.64,-0.6 -1.11,-0.57c-0.17,0.01 -0.32,0.07 -0.43,0.16c-0.11,0.09 -0.18,0.21 -0.21,0.37c-0.04,0.23 -0.05,0.49 -0.04,0.77c0.01,0.39 -0.06,0.71 -0.23,0.96c-0.26,0.43 -0.57,0.9 -0.93,1.43c-0.08,0.12 -0.12,0.25 -0.12,0.38l0,4.13c0,0.13 0.05,0.24 0.14,0.33c0.14,0.13 0.34,0.2 0.6,0.2l3.61,0c0.19,0 0.39,-0.03 0.6,-0.08c0.33,-0.08 0.58,-0.25 0.75,-0.5c0.15,-0.23 0.15,-0.49 0.02,-0.79c0.25,-0.13 0.41,-0.31 0.46,-0.54c0.06,-0.25 0.02,-0.49 -0.13,-0.7c0.25,-0.15 0.39,-0.35 0.43,-0.58c0.05,-0.23 -0.01,-0.45 -0.16,-0.66c0.32,-0.21 0.45,-0.51 0.38,-0.91zm-7.45,-0.15l-0.22,0l-0.54,0c-0.11,0 -0.21,0.04 -0.28,0.11c-0.07,0.07 -0.1,0.17 -0.1,0.29c-0.01,0.31 -0.01,0.76 0,1.37l0,2.7c0,0.15 0.04,0.27 0.11,0.34c0.07,0.07 0.19,0.11 0.34,0.11l0.14,0l0,0.01l0.17,-0.01l0.16,0.01l0,-0.01l0.14,0c0.16,0 0.28,-0.04 0.35,-0.11c0.07,-0.07 0.11,-0.19 0.11,-0.34l0,-4.07c0,-0.12 -0.04,-0.22 -0.11,-0.29c-0.07,-0.07 -0.16,-0.11 -0.27,-0.11zm-0.38,1.06c-0.07,0 -0.14,-0.02 -0.19,-0.07c-0.05,-0.05 -0.07,-0.12 -0.07,-0.19c0,-0.07 0.02,-0.13 0.07,-0.18c0.05,-0.05 0.12,-0.08 0.19,-0.08c0.07,0 0.13,0.03 0.18,0.08c0.05,0.05 0.08,0.11 0.08,0.18c0,0.07 -0.03,0.13 -0.08,0.18c-0.05,0.05 -0.11,0.08 -0.18,0.08z" fill="black" id="svg_1" transform="rotate(180 5 4.50347)"/>
 </g>
</svg>