<svg width="10" height="9" viewBox="0 0 10 9" fill="none" xmlns="http://www.w3.org/2000/svg">
<path d="M9.29 4.1C9.25667 3.87333 9.16 3.69333 9 3.56C8.84 3.42667 8.64333 3.35667 8.41 3.35C8.13667 3.34333 7.73 3.34333 7.19 3.35H5.72C5.74667 3.27 5.77 3.19 5.79 3.11L5.82 2.99C5.89333 2.71 5.94333 2.49667 5.97 2.35C6.01 2.11667 6.01667 1.9 5.99 1.7C5.93 1.28 5.82 0.946666 5.66 0.7C5.38667 0.293333 5.01667 0.103333 4.55 0.129999C4.37667 0.143333 4.23333 0.196666 4.12 0.29C4.00667 0.376666 3.93667 0.5 3.91 0.66C3.87 0.893333 3.85667 1.15 3.87 1.43C3.88333 1.81667 3.80667 2.13667 3.64 2.39C3.38 2.81667 3.07 3.29333 2.71 3.82C2.63 3.94 2.59 4.06667 2.59 4.2V8.33C2.59 8.45667 2.63667 8.56667 2.73 8.66C2.87 8.79333 3.07 8.86 3.33 8.86H6.94C7.12667 8.86 7.32667 8.83333 7.54 8.78C7.87333 8.7 8.12333 8.53333 8.29 8.28C8.43667 8.05333 8.44333 7.79 8.31 7.49C8.56333 7.35667 8.71667 7.17667 8.77 6.95C8.83 6.69667 8.78667 6.46333 8.64 6.25C8.88667 6.09667 9.03 5.90333 9.07 5.67C9.11667 5.43667 9.06333 5.21667 8.91 5.01C9.23 4.80333 9.35667 4.5 9.29 4.1ZM1.84 3.95H1.62H1.08C0.966667 3.95 0.873333 3.98667 0.8 4.06C0.733333 4.13333 0.7 4.23 0.7 4.35C0.693333 4.65667 0.693333 5.11333 0.7 5.72V8.42C0.7 8.57333 0.736667 8.68667 0.81 8.76C0.883333 8.83333 0.996667 8.87 1.15 8.87H1.29V8.88L1.46 8.87L1.62 8.88V8.87H1.76C1.92 8.87 2.03667 8.83333 2.11 8.76C2.18333 8.68667 2.22 8.57333 2.22 8.42V4.35C2.22 4.23 2.18333 4.13333 2.11 4.06C2.04333 3.98667 1.95333 3.95 1.84 3.95ZM1.46 5.01C1.38667 5.01 1.32333 4.98667 1.27 4.94C1.22333 4.88667 1.2 4.82333 1.2 4.75C1.2 4.67667 1.22333 4.61667 1.27 4.57C1.32333 4.51667 1.38667 4.49 1.46 4.49C1.53333 4.49 1.59333 4.51667 1.64 4.57C1.69333 4.61667 1.72 4.67667 1.72 4.75C1.72 4.81667 1.69333 4.87667 1.64 4.93C1.59333 4.98333 1.53333 5.01 1.46 5.01Z" fill="black"/>
</svg>
