<svg width="80" height="80" viewBox="0 0 80 80" fill="none" xmlns="http://www.w3.org/2000/svg">
<path fill-rule="evenodd" clip-rule="evenodd" d="M40 12.5C24.8122 12.5 12.5 24.8122 12.5 40C12.5 55.1878 24.8122 67.5 40 67.5C55.1878 67.5 67.5 55.1878 67.5 40C67.5 24.8122 55.1878 12.5 40 12.5ZM7.5 40C7.5 22.0507 22.0507 7.5 40 7.5C57.9493 7.5 72.5 22.0507 72.5 40C72.5 57.9493 57.9493 72.5 40 72.5C22.0507 72.5 7.5 57.9493 7.5 40Z" fill="black"/>
<path fill-rule="evenodd" clip-rule="evenodd" d="M30 27.5C30 26.1193 31.1193 25 32.5 25H42.5C45.1522 25 47.6957 26.0536 49.5711 27.9289C51.4464 29.8043 52.5 32.3478 52.5 35C52.5 37.6522 51.4464 40.1957 49.5711 42.0711C47.6957 43.9464 45.1522 45 42.5 45H35V52.5C35 53.8807 33.8807 55 32.5 55C31.1193 55 30 53.8807 30 52.5V27.5ZM35 40H42.5C43.8261 40 45.0979 39.4732 46.0355 38.5355C46.9732 37.5979 47.5 36.3261 47.5 35C47.5 33.6739 46.9732 32.4021 46.0355 31.4645C45.0979 30.5268 43.8261 30 42.5 30H35V40Z" fill="black"/>
<path fill-rule="evenodd" clip-rule="evenodd" d="M41.5694 40.4186C42.7016 39.6284 44.2601 39.9058 45.0502 41.0381L52.0502 51.0694C52.8403 52.2016 52.5629 53.7601 51.4307 54.5502C50.2984 55.3403 48.74 55.0629 47.9498 53.9307L40.9498 43.8994C40.1597 42.7671 40.4371 41.2087 41.5694 40.4186Z" fill="black"/>
</svg>
