<svg width="80" height="80" viewBox="0 0 80 80" fill="none" xmlns="http://www.w3.org/2000/svg">
<path fill-rule="evenodd" clip-rule="evenodd" d="M40 27.5C34.4772 27.5 30 31.9772 30 37.5C30 43.0228 34.4772 47.5 40 47.5C45.5228 47.5 50 43.0228 50 37.5C50 31.9772 45.5228 27.5 40 27.5ZM25 37.5C25 29.2157 31.7157 22.5 40 22.5C48.2843 22.5 55 29.2157 55 37.5C55 45.7843 48.2843 52.5 40 52.5C31.7157 52.5 25 45.7843 25 37.5Z" fill="black"/>
<path fill-rule="evenodd" clip-rule="evenodd" d="M40 52.4981C36.3067 52.4981 32.6854 53.5208 29.5377 55.4529C26.3899 57.385 23.8387 60.1509 22.1667 63.4442C21.5417 64.6754 20.037 65.1667 18.8058 64.5417C17.5747 63.9166 17.0833 62.4119 17.7084 61.1808C19.7983 57.0642 22.9874 53.6067 26.9221 51.1916C30.8567 48.7765 35.3833 47.4981 40 47.4981C44.6168 47.4981 49.1434 48.7765 53.078 51.1916C57.0127 53.6067 60.2017 57.0642 62.2917 61.1808C62.9167 62.4119 62.4254 63.9166 61.1943 64.5417C59.9631 65.1667 58.4584 64.6754 57.8334 63.4442C56.1614 60.1509 53.6102 57.385 50.4624 55.4529C47.3147 53.5208 43.6934 52.4981 40 52.4981Z" fill="black"/>
<path fill-rule="evenodd" clip-rule="evenodd" d="M62.5 15C61.1193 15 60 16.1193 60 17.5C60 18.8807 61.1193 20 62.5 20C63.8807 20 65 18.8807 65 17.5C65 16.1193 63.8807 15 62.5 15ZM55 17.5C55 13.3579 58.3579 10 62.5 10C66.6421 10 70 13.3579 70 17.5C70 21.6421 66.6421 25 62.5 25C58.3579 25 55 21.6421 55 17.5Z" fill="black"/>
<path fill-rule="evenodd" clip-rule="evenodd" d="M62.5 6.25C63.8807 6.25 65 7.36929 65 8.75V12.5C65 13.8807 63.8807 15 62.5 15C61.1193 15 60 13.8807 60 12.5V8.75C60 7.36929 61.1193 6.25 62.5 6.25Z" fill="black"/>
<path fill-rule="evenodd" clip-rule="evenodd" d="M52.7773 11.8666C53.4723 10.6736 55.0029 10.2698 56.1959 10.9648L59.4147 12.8398C60.6077 13.5348 61.0115 15.0653 60.3165 16.2584C59.6215 17.4514 58.091 17.8552 56.8979 17.1602L53.6792 15.2852C52.4861 14.5902 52.0824 13.0597 52.7773 11.8666Z" fill="black"/>
<path fill-rule="evenodd" clip-rule="evenodd" d="M60.3165 18.7416C61.0115 19.9347 60.6077 21.4652 59.4147 22.1602L56.1959 24.0352C55.0029 24.7302 53.4723 24.3264 52.7773 23.1334C52.0824 21.9403 52.4861 20.4098 53.6792 19.7148L56.8979 17.8398C58.091 17.1448 59.6215 17.5486 60.3165 18.7416Z" fill="black"/>
<path fill-rule="evenodd" clip-rule="evenodd" d="M62.5 20C63.8807 20 65 21.1193 65 22.5V26.25C65 27.6307 63.8807 28.75 62.5 28.75C61.1193 28.75 60 27.6307 60 26.25V22.5C60 21.1193 61.1193 20 62.5 20Z" fill="black"/>
<path fill-rule="evenodd" clip-rule="evenodd" d="M64.6836 18.7416C65.3786 17.5486 66.9091 17.1448 68.1022 17.8398L71.3209 19.7148C72.514 20.4098 72.9177 21.9403 72.2228 23.1334C71.5278 24.3264 69.9972 24.7302 68.8042 24.0352L65.5854 22.1602C64.3924 21.4652 63.9886 19.9347 64.6836 18.7416Z" fill="black"/>
<path fill-rule="evenodd" clip-rule="evenodd" d="M72.2228 11.8666C72.9177 13.0597 72.514 14.5902 71.3209 15.2852L68.1022 17.1602C66.9091 17.8552 65.3786 17.4514 64.6836 16.2584C63.9886 15.0653 64.3924 13.5348 65.5854 12.8398L68.8042 10.9648C69.9972 10.2698 71.5278 10.6736 72.2228 11.8666Z" fill="black"/>
<path fill-rule="evenodd" clip-rule="evenodd" d="M42.5413 12.6135C41.702 12.5325 40.859 12.4946 40.0158 12.4999L40 12.5V12.5C34.561 12.5 29.2442 14.1128 24.7218 17.1346C20.1995 20.1563 16.6747 24.4512 14.5933 29.4762C12.5119 34.5012 11.9673 40.0305 13.0284 45.365C14.0895 50.6995 16.7086 55.5995 20.5546 59.4454C24.4005 63.2914 29.3006 65.9105 34.635 66.9716C39.9695 68.0327 45.4988 67.4881 50.5238 65.4067C55.5488 63.3253 59.8437 59.8005 62.8654 55.2782C65.8872 50.7558 67.5 45.439 67.5 40L67.5 39.9877C67.5054 38.8958 67.439 37.8048 67.3013 36.7217C67.127 35.352 68.0961 34.1005 69.4658 33.9262C70.8355 33.752 72.0871 34.7211 72.2613 36.0908C72.4265 37.3894 72.5062 38.6975 72.5 40.0066C72.4987 46.4322 70.5927 52.7133 67.0228 58.056C63.4516 63.4006 58.3758 67.5662 52.4372 70.0261C46.4986 72.4859 39.964 73.1295 33.6596 71.8755C27.3552 70.6215 21.5643 67.5262 17.019 62.981C12.4738 58.4358 9.37851 52.6448 8.12449 46.3404C6.87047 40.036 7.51408 33.5014 9.97393 27.5628C12.4338 21.6242 16.5994 16.5484 21.944 12.9772C27.2864 9.40755 33.567 7.50156 39.9921 7.5" fill="black"/>
</svg>
